PathFileType	4	(X/Y/Z)	Patient4_TMGait_0pt8_01_right_30.trc.trc
DataRate	CameraRate	NumFrames	NumMarkers	Units	OrigDataRate	OrigDataStartFrame	OrigNumFrames
89.171974522293	89.171974522293	4	33	mm	89.171974522293	71	       141
Frame#	Time	Sacral			L.Shoulder			Chest			R.Shoulder			Neck			R.ASIS			L.ASIS			R.Thigh.Superior			R.Thigh.Lateral			R.Thigh.Inferior			R.Patella			L.Thigh.Superior			L.Thigh.Lateral			L.Thigh.Inferior			L.Patella			L.Shank.Superior			L.Shank.Lateral			L.Shank.Inferior			R.Shank.Superior			R.Shank.Lateral			R.Shank.Inferior			R.Heel			R.Midfoot.Superior			R.Midfoot.Lateral			R.Toe			L.Heel			L.Midfoot.Lateral			L.Midfoot.Superior			L.Toe			L.Elbow			L.Wrist			R.Elbow			R.Wrist			
		X1	Y1	Z1	X2	Y2	Z2	X3	Y3	Z3	X4	Y4	Z4	X5	Y5	Z5	X6	Y6	Z6	X7	Y7	Z7	X8	Y8	Z8	X9	Y9	Z9	X10	Y10	Z10	X11	Y11	Z11	X12	Y12	Z12	X13	Y13	Z13	X14	Y14	Z14	X15	Y15	Z15	X16	Y16	Z16	X17	Y17	Z17	X18	Y18	Z18	X19	Y19	Z19	X20	Y20	Z20	X21	Y21	Z21	X22	Y22	Z22	X23	Y23	Z23	X24	Y24	Z24	X25	Y25	Z25	X26	Y26	Z26	X27	Y27	Z27	X28	Y28	Z28	X29	Y29	Z29	X30	Y30	Z30	X31	Y31	Z31	X32	Y32	Z32	X33	Y33	Z33	

71	34.325000000000	841.557377215082	1001.862476147454	528.077718285324	999.532233761506	1415.217459278062	318.225659158184	1119.927828104045	1351.315334433126	470.086521340045	1058.722766616049	1435.682962019330	647.932260264310	1000.041046036652	1482.765433665711	473.371339527891	1071.031893746898	933.640504649867	630.833135118475	1041.949519827076	944.843158964438	355.922861896347	1058.546113198511	718.543111706935	607.563343304401	946.736895876021	630.146392857739	667.766366882732	1003.464305291451	561.498166745073	589.049531190186	981.807803682369	477.989793685324	593.516903798252	1117.829120336518	768.966968107048	390.387717913438	1075.946478734955	640.948493530680	305.271069716964	1181.641096746483	585.635596229324	367.001145641508	1212.144230516169	525.237196263369	361.505963099790	1201.744266949406	453.526750350651	349.850154663310	1147.835003601553	317.363117808388	302.125117117621	1247.734229498211	228.835850660646	353.161408564457	941.380295767641	396.695772394142	598.161636687666	856.836228121690	301.829318222172	657.958783521612	887.495702313221	203.512759014055	592.351408616785	739.286358716520	45.337327908370	554.930857439896	910.152644534612	96.444815703437	596.281267460036	820.158720254433	37.161526371142	631.176825177480	1028.757094148390	40.340541522732	626.819072592960	1187.055932544270	43.416976553029	397.045581688100	1256.631014739177	52.970615396467	313.724733211210	1319.911961409068	137.144620565420	329.972435919325	1454.280099662151	120.141914843742	298.495327767685	855.665670924126	1086.850047642032	250.293044350467	806.327600470081	834.015433996293	285.305267036191	1217.362196234461	1143.646570889755	770.445272004626	1441.136675861321	1226.405842383928	691.567323713128	
72	34.336214285714	842.889316196181	1000.501578006974	524.963691559942	1000.166567367571	1414.196579793589	316.461379417025	1120.317488595074	1350.407747125336	468.544423651196	1058.260897809983	1434.374372340249	646.235982807995	1000.034659148087	1481.471925928250	471.728439668386	1071.520084622067	932.097836729093	629.408709794753	1044.442950679422	943.031422572930	354.172132382518	1057.988556476151	716.824771577254	606.492003266440	945.280219537783	629.180441713009	666.284197009659	1001.984994084255	559.910118529923	587.994497988043	979.398240868792	476.044403045831	592.373413845298	1120.261890691711	767.156933959814	389.414197407388	1076.694942723083	638.168678090119	306.172660764601	1182.811711504193	583.344159702057	366.978280460381	1212.056599967686	521.624672344811	362.581711668495	1200.797010757799	449.454885687088	351.333231497897	1144.298078044392	314.051486417193	304.912348911724	1242.611987438892	224.174980631811	356.274450428781	937.729146896046	395.147367345783	597.077575793627	851.586669243771	301.854392495641	657.081866374655	880.586816263798	202.866187313050	591.881597899755	730.328989913438	45.765786100248	555.033210700876	901.307224377164	96.484072065746	596.255481672625	811.214982058899	37.234645635713	631.127545915704	1019.805133707079	40.104677267488	626.918458273344	1178.354952998231	41.394947793189	401.342563941488	1247.045169152871	49.423695993424	317.110682225927	1312.801734252380	131.157789216267	333.217020988592	1446.234221130241	110.299103407582	299.862340248260	852.107376196531	1088.543798766278	249.123019699791	798.280427966723	836.684396009505	285.819335452642	1221.520398154647	1145.461530049746	767.641606358764	1441.233547168504	1236.380773128367	687.793283254780	
73	34.347428571429	844.372272391328	999.122772121333	521.727711006071	1000.910363371614	1413.138274280101	314.502904589349	1120.779966368817	1349.543339205817	466.858882013304	1057.809940243322	1433.136484191240	644.391443524166	1000.052867477718	1480.216940410701	469.830123145877	1072.106522882051	930.539712543149	627.901905803736	1047.073520090366	941.341522335581	352.383842862327	1057.791201301238	715.108274289582	605.367098331087	944.254138943297	628.101466830654	664.626394493512	1001.111197271824	558.234885654593	586.833171772430	977.617847009339	473.882429693215	591.095362623084	1122.951817971695	765.469271041622	388.314900422193	1077.634076759847	635.610544927242	307.010688952444	1184.134641246744	581.198892521000	367.045994236623	1211.944134709743	518.026074939606	363.849101757919	1199.801064455176	445.393295782229	352.867116824860	1140.618427167809	310.918048597384	307.322653477963	1236.936431080403	219.434050892739	359.283367841485	934.579111661402	393.429662694941	595.853618954874	846.683133588032	301.898033767609	656.055364438413	873.882159079173	202.199340443758	591.333570565647	721.363960436342	46.364562945430	555.162602704761	892.529941858546	96.545434590995	596.208541956533	802.288466609608	37.382715764362	631.098822804531	1010.887713070074	39.864531216959	627.014931468605	1168.297962468535	39.627934398156	404.998437655897	1236.435335852884	45.985147813154	320.108748860256	1304.931500483732	124.918052306629	336.509615929591	1437.451956214186	99.633743249022	301.744324470350	849.380764635120	1089.869543333986	247.703501918511	791.462610673788	838.968003905556	285.772790470003	1224.791122587450	1146.909395468145	765.032055353404	1440.556397979497	1245.083906752882	684.406866896853	
74	34.358642857143	845.957254195819	997.764080617618	518.422942115586	1001.784795930225	1412.069438578018	312.359999557897	1121.322649402196	1348.743758193611	465.050574146594	1057.387140558065	1432.009691189766	642.414891500591	1000.118692410244	1479.044728012571	467.678671980396	1072.785345557271	929.006379802663	626.305376793399	1049.771310104414	939.838043917777	350.580454679327	1057.963072001650	713.436176884543	604.176725446776	943.689240308551	626.930040170134	662.797174861767	1000.873413581843	556.503836680030	585.560518789947	976.529703704875	471.507962763631	589.710071233551	1125.787921133638	763.925785426901	387.117159184856	1078.779390441873	633.412267780375	307.622648915285	1185.525212380194	579.260618279489	367.177565886061	1211.784693173618	514.618975167740	365.188978518882	1198.818432763443	441.559733398056	354.302558568754	1137.093187013473	308.110823672653	309.144621746299	1231.105642378839	214.914231766906	361.994444976591	931.955217105551	391.585560437549	594.523623012165	842.149733516951	302.014095859889	654.901686784466	867.410668072291	201.571132018996	590.729874713111	712.405390639587	47.236309188279	555.324222175039	883.861927761347	96.632619677524	596.150448521938	793.389050933198	37.657365557191	631.096411681988	1002.008653316795	39.620240758621	627.101923315944	1157.577852511075	38.233489570590	407.860392188896	1225.501503305869	42.885971776905	322.583071263609	1296.795757750726	118.852901197556	339.658214556807	1428.463394109975	88.900224496950	304.017886839102	847.525189381007	1090.785257963074	246.007843062363	785.947988837355	840.791244504485	285.131272262434	1227.149045671520	1147.920741308213	762.654035420157	1439.168094328634	1252.476400759940	681.416437694925	
